<svg xmlns="http://www.w3.org/2000/svg" fill="currentColor" width="35" height="35" version="1.0"
  viewBox="0 0 1024 1024">
  <path
    d="M229 112.6c-3.6.7-10.3 3.2-14.9 5.5-14.5 7.2-24.4 19.4-29.9 36.9-1.6 5.1-1.7 28.6-1.9 354.8-.3 307-.1 350.1 1.2 356.5 4.5 22 21.2 38.9 44.1 44.7 7.6 2 12.1 2 250.8 2 240.8 0 243.1 0 246.4-2 9.6-5.8 9.5-18.3-.1-25.4l-2.8-2.1-244.7-.5-244.7-.5-4.1-2.2c-6.1-3.3-10.1-7-13.2-12.2l-2.7-4.6V514c0-341.3 0-349.6 1.9-354.4 2.5-6.5 8.8-13.3 15.1-16.2l5-2.4H621v66.2c0 73 0 72.9 6.2 85.7 3.9 7.9 14.8 19.3 22.5 23.4 2.8 1.5 8.7 3.6 13 4.7 7.5 2 9.9 2 75 1.4l67.3-.7v222.2l-51.7.3-51.8.3-3.8 2.4c-2.1 1.2-4.8 4.2-6 6.5l-2.2 4.1-.3 66.7-.3 66.8h-23.5c-21.8 0-23.9.2-28.5 2.1-3.7 1.6-5.6 3.2-7.4 6.4-4.6 7.8-3.9 9.9 10.2 29.9 5.8 8.3 29.1 41.4 51.6 73.6 61.8 88.1 67.4 95.8 70.7 97.5 4 2.1 10.8 1.9 14.6-.4 2-1.2 8.5-9.6 17-21.8 64.6-92.8 106.3-152.6 109.4-156.8 5.3-7.2 7-10.9 7-15.3 0-4.6-3.1-9.7-7.9-12.9-3.3-2.2-4-2.3-28.7-2.3H848l-.2-67.3-.3-67.3-2.7-4.1c-1.6-2.4-4.3-4.8-6.7-5.9l-4-1.9-.1-119c0-114.2-.1-119.2-1.9-123-1.3-2.8-30.7-32.8-94.7-96.6-80.7-80.4-93.4-92.7-97-93.7-3.1-.9-55.4-1.2-204.5-1.1-167.5 0-201.5.3-206.9 1.5zm551.7 179c-.1.1-25.2.4-55.7.5-55.1.2-55.5.2-59.5-1.9-2.2-1.2-4.7-2.7-5.5-3.4-3.1-2.6-6.8-8.4-7.9-12.3-.7-2.6-1.2-23.5-1.3-58.7l-.3-54.8 65.2 65.2c35.9 35.9 65.1 65.3 65 65.4zm37.5 351.3c.3 68.3.3 69 2.4 71.8 4.6 6.1 7.1 6.8 27.2 7.1 10 .2 18.2.5 18.2.7 0 .1-6.4 9.5-14.2 20.7-7.9 11.2-29.6 42.5-48.3 69.6-18.7 27-34.3 49.2-34.6 49.2-.3 0-4-5.1-8.1-11.2-4.2-6.2-26.1-37.6-48.6-69.8l-41-58.5 18.6-.5c17.2-.5 19-.7 22.3-2.8 7.2-4.4 6.9-1.2 6.9-77.1V574h99l.2 68.9z"></path>
  <path
    d="M384.1 399.5c-18.9 4.3-32.3 11.6-44.2 24.1-19.3 20.5-28.1 47.4-28.1 86.4 0 50.8 17.1 84.9 51.1 102 24.3 12.1 63.1 10.5 87.6-3.7 13.2-7.7 22.7-18.2 29.6-32.8 3.3-7 6.9-18.2 6.9-21.4 0-1.7-39.9-1.5-40.5.1-4.9 14.2-9.4 20.2-18.4 24.7-8.4 4.2-14.9 5.4-26 4.9-24-1.3-37.2-13.8-44.7-42.4-5-18.9-4.4-49.8 1.3-69.4 5.4-18.9 12.7-28.8 25.9-35.5 5.7-2.9 6.4-3 18.9-3 12 0 13.4.2 18.7 2.7 11.3 5.3 18.8 14.5 22.4 27.7l1.7 6.1h20.9c11.4 0 20.8-.3 20.8-.8-.1-4.3-4.7-20-7.8-26.5-9.9-21-27.6-35.3-51.7-41.7-10.5-2.9-34.9-3.7-44.4-1.5zM494.5 404.2c.8 2.6 64.7 185.6 70.5 201.8l3.8 10.5 25.5.3 25.5.2 1.5-4.2c.8-2.4 7.4-21.4 14.7-42.3 14.4-41.4 27.6-79.8 46-133.8l11.9-34.7h-44.7l-1.5 4.7c-.8 2.7-6.4 20.3-12.5 39.3-9.6 30-16.6 52.7-35.4 115-2.2 7.4-4.4 14.1-4.7 14.8-.4.7-6.2-16.2-13-37.5-6.7-21.4-19.3-60.7-27.9-87.5L538.5 402h-44.6l.6 2.2z"></path>
</svg>